<svg xmlns="http://www.w3.org/2000/svg" viewBox="0 0 512 512">
  <defs>
    <linearGradient id="grad" x1="0%" y1="0%" x2="100%" y2="100%">
      <stop offset="0%" style="stop-color:#16a34a;stop-opacity:1" />
      <stop offset="100%" style="stop-color:#059669;stop-opacity:1" />
    </linearGradient>
  </defs>
  <rect width="512" height="512" rx="100" fill="#020617"/>
  <path d="M256,64 C160,64 96,128 96,256 C96,384 160,448 256,448 C352,448 416,384 416,256 C416,128 352,64 256,64 Z M256,416 C192,416 128,384 128,320 C128,256 192,192 256,192 C320,192 384,128 384,192 C384,256 320,320 256,320 C192,320 128,416 256,416 Z" fill="url(#grad)" />
  <circle cx="256" cy="256" r="64" fill="url(#grad)" opacity="0.8"/>
</svg>
